<svg xmlns="http://www.w3.org/2000/svg" width="1078" height="316" viewBox="0 0 1078 316">
  <g id="Group_5" data-name="Group 5" transform="translate(291 2654)">
    <g id="Group_25" data-name="Group 25" transform="translate(6569 -3477)">
      <g id="Group_24" data-name="Group 24" transform="translate(-6578.946 771.17)">
        <g id="Group_22" data-name="Group 22">
          <path id="Path_17" data-name="Path 17" d="M262.925,156.564c.845-2.778.008-4.919-.3-7.028-.968-6.574-.334-13.215-1.043-19.788-.286-2.643.729-3.86,3.511-3.815q9.255.153,18.513,0c2.661-.039,3.783.984,3.72,3.705-.117,5.066.055,10.14-.06,15.206-.057,2.5.75,3.561,3.4,3.542q19.007-.137,38.017,0c2.619.019,3.456-.946,3.406-3.494-.13-6.714-.094-13.418,1.153-20.079,3.793-20.241,16-32.541,35.582-37.863,13.809-3.753,27.865-3.509,41.983-2.435,17.453,1.328,34.37,5.164,51.052,10.3,3.026.93,4.32,2.334,4.11,5.585-.27,4.17-.043,8.371-.073,12.559-.029,3.979-.316,4.209-4.226,3.008a209.2,209.2,0,0,0-30.5-7.309c-16.131-2.406-32.342-4.318-48.64-1.7-14.2,2.28-22.081,10.894-23.831,25.2-.525,4.294-.379,8.574-.574,12.858-.121,2.686,1.034,3.4,3.523,3.373,9.8-.091,19.614-.034,29.421-.034H709.432c1.1,0,2.214.092,3.306-.015,2.905-.282,3.891,1.021,3.8,3.857-.158,4.844-.144,9.7-.008,14.544.076,2.7-.9,3.733-3.642,3.679-6.61-.13-13.223-.048-19.836-.036-4.412.008-4.453.036-4.455,4.4q-.009,49.755,0,99.513c0,14.656-.078,29.312.058,43.969.032,3.328-1.045,4.457-4.386,4.312-5.61-.24-11.237-.062-16.858-.064-5.318,0-5.328-.006-5.328-5.207q-.006-37.029.02-74.055a40.881,40.881,0,0,0-2.1-13.973c-2.338-6.573-6.531-10.843-13.885-11.342-8.223-.557-15.115,1.495-19.049,9.458-3.1,6.283-3.744,13.065-3.8,19.943-.046,5.633-.048,5.635-5.6,5.637q-8.268.006-16.531,0c-4.379-.013-4.514-.123-4.508-4.406a58.364,58.364,0,0,0-1.221-13.783c-2.627-10.987-8.965-16.353-19.922-16.75-10.053-.364-18.326,5.55-21.252,15.5a37.808,37.808,0,0,0-.676,18.943c2.323,10.641,10.983,17.9,21.87,18.883,6.1.553,12.078-.144,18.074-.852,2.394-.281,3.211.559,3.191,2.825-.051,5.509-.023,11.022-.017,16.529,0,1.582-.418,2.85-2.209,3.155-16.2,2.754-32.1,2.969-46.643-6.278A42.929,42.929,0,0,1,528.383,258.7c-3.317-15.157-2.377-29.893,6.092-43.341,9.607-15.254,24.013-20.9,41.544-19.735,5.76.385,11.415,1.338,16.567,4.048,9.365,4.925,12,8,17.072,19.424,3.68-11.4,10.274-19.851,21.92-22.851,11.168-2.877,21.647-1.648,29.836,7.686.957-1.186.643-2.213.645-3.157.029-8.7-.116-17.414.084-26.116.076-3.291-.866-4.383-4.27-4.353-17.74.155-35.482.072-53.227.072H496.873c-4.51,0-4.521.012-4.521,4.6q-.006,78.022,0,156.046c0,5.158-.034,4.834-5.063,5.237-13.367,1.07-25.811-1.573-38.132-6.942-15.337-6.683-31.141-12.31-46.826-18.172-3.261-1.218-4.36-2.912-4.2-6.312.277-5.717.183-11.459.029-17.186a5.963,5.963,0,0,1,3-5.707,314.4,314.4,0,0,1,34.14-20.135c1.042-.521,2.3-.777,3.18-2.162-7.706-2.93-15.3-5.82-22.9-8.705-6.488-2.463-12.952-5-19.488-7.328-2.322-.828-3.292-2.057-3.24-4.574q.21-9.915,0-19.834a6.031,6.031,0,0,1,2.9-5.462c20.4-14.951,42.928-25.541,66.976-33.061,3.252-1.017,5.206-6.4,3.379-9.342a1.92,1.92,0,0,0-1.652-.9c-.77-.05-1.543-.055-2.314-.055-33.28,0-66.561.042-99.84-.07-3.358-.012-4.307.993-4.3,4.319q.144,71.244.063,142.489c0,5.383-.007,5.383-5.487,5.387H338.03c-5.98,0-5.983,0-5.983-5.836q0-69.592-.015-139.184c-.005-8.074,1.049-7.06-6.945-7.1-11.129-.049-22.26-.019-33.39-.01-4.378,0-4.4.019-4.4,4.421q-.008,70.749,0,141.5c0,1.1-.046,2.2-.011,3.306.068,2.1-.913,2.934-3.01,2.913q-9.917-.1-19.836,0c-2.209.026-3.326-.73-3.156-3.056.08-1.1,0-2.2,0-3.3V191.855a45.529,45.529,0,0,0-1.653-12.733,10.662,10.662,0,0,0-9.378-8.136c-8.332-1.219-16.72-.425-25.08-.574-8.548-.151-8.55-.034-8.55,8.469V317.4c0,5.092-.01,5.1-5.082,5.1-5.95,0-11.9-.037-17.852.019A7.672,7.672,0,0,1,188.8,320.9q-39-28.986-78.06-57.893a6.129,6.129,0,0,1-2.8-5.537c.113-6.832.074-13.666.018-20.5a5.8,5.8,0,0,1,2.118-4.9c17-14.575,35.424-26.9,56.082-35.741a156.148,156.148,0,0,1,21.167-7.482c2.626-.7,3.572-2.039,3.431-4.683a86.29,86.29,0,0,1,0-9.914c.193-3.1-1.068-3.933-4.037-3.924-29.2.086-58.407.051-87.61.051a32.785,32.785,0,0,0-3.3.015c-2.833.291-3.97-.807-3.856-3.751.188-4.842.186-9.7,0-14.542-.114-2.954,1.066-4.06,3.871-3.745a3.021,3.021,0,0,0,.33,0q74.383-.007,148.767-.052C252.075,148.295,258.131,150.33,262.925,156.564Zm-72.21,95.727q0-18-.008-35.991c-.006-3.55-.172-3.663-3.539-2.368-19.7,7.576-37.459,18.436-53.853,31.65-1.831,1.476-1.412,2.15.182,3.371q26.98,20.694,53.9,41.469c.8.613,1.6,1.992,2.756,1.281,1.01-.619.544-2.029.546-3.09q.038-18.162.016-36.322Zm275.722-26.974c0-6.272-.025-12.543.014-18.815.012-2.029-.346-3.187-2.831-2.346a184.132,184.132,0,0,0-43.425,21.29c-2.029,1.356-1.785,2.1.364,2.955q21.624,8.589,43.2,17.3c2.149.869,2.729.242,2.707-1.9-.071-6.161-.029-12.324-.029-18.484ZM424.113,294.23c.418.45.533.674.71.748,13.025,5.4,26.066,10.766,39.073,16.21,2.44,1.021,2.559-.258,2.555-2.085q-.034-14.545-.01-29.092c0-8.17-.053-8.291-7.466-4.98C446.9,280.419,435.17,286.459,424.113,294.23Z" fill="#ff284f" fill-rule="evenodd"/>
          <path id="Path_18" data-name="Path 18" d="M120.263,294.125a16.042,16.042,0,1,1-16.038,16.127C104.346,300.98,111.175,294.113,120.263,294.125Z" fill="#ff284f" fill-rule="evenodd"/>
        </g>
        <path id="Path_19" data-name="Path 19" d="M411.123,175.666" fill="#fe0a52"/>
      </g>
    </g>
    <g id="Group_28" data-name="Group 28" transform="translate(6480 -3041)">
      <g id="Rectangle_8" data-name="Rectangle 8" transform="translate(-6771 387)" fill="none">
        <path d="M0,0H1078V316H0Z" stroke="none"/>
        <path d="M 11 11 L 11 305 L 1067 305 L 1067 11 L 11 11 M 0 0 L 1078 0 L 1078 316 L 0 316 L 0 0 Z" stroke="none" fill="#ff284f"/>
      </g>
      <g id="Group_22-2" data-name="Group 22" transform="translate(-6502.082 436)">
        <path id="Path_17-2" data-name="Path 17" d="M239.507,146.6c.729-2.4.007-4.245-.261-6.065-.835-5.674-.288-11.4-.9-17.078-.247-2.281.629-3.331,3.03-3.292q7.987.132,15.977,0c2.3-.034,3.265.849,3.21,3.2-.1,4.372.047,8.751-.052,13.123-.049,2.158.647,3.073,2.933,3.057q16.4-.118,32.81,0c2.26.016,2.983-.816,2.939-3.015a84.682,84.682,0,0,1,1-17.329c3.27-17.465,13.807-28.08,30.707-32.673,11.918-3.239,24.048-3.028,36.233-2.1,15.063,1.146,29.662,4.457,44.06,8.887,2.612.8,3.728,2.014,3.547,4.82-.233,3.6-.037,7.224-.063,10.839-.025,3.434-.273,3.633-3.647,2.6a180.549,180.549,0,0,0-26.33-6.314c-13.922-2.076-27.912-3.727-41.978-1.466-12.257,1.968-19.057,9.4-20.567,21.744-.453,3.706-.327,7.4-.5,11.1-.1,2.318.892,2.931,3.04,2.911,8.462-.079,16.928-.029,25.391-.029H624.857c.95,0,1.911.079,2.853-.013,2.507-.243,3.358.881,3.279,3.329-.136,4.181-.124,8.371-.007,12.552.066,2.328-.777,3.222-3.143,3.175-5.7-.112-11.412-.041-17.119-.031-3.808.007-3.843.031-3.845,3.793q-.008,42.94,0,85.883c0,12.649-.067,25.3.05,37.947.028,2.872-.9,3.847-3.785,3.721-4.842-.207-9.7-.053-14.549-.055-4.59,0-4.6-.005-4.6-4.494q-.005-31.957.017-63.912a35.279,35.279,0,0,0-1.807-12.058c-2.018-5.673-5.636-9.358-11.983-9.789-7.1-.481-13.045,1.29-16.44,8.163-2.68,5.422-3.231,11.276-3.28,17.211-.04,4.861-.041,4.863-4.832,4.865q-7.136.005-14.267,0c-3.779-.011-3.9-.106-3.891-3.8a50.375,50.375,0,0,0-1.054-11.9c-2.267-9.482-7.737-14.113-17.193-14.456-8.676-.314-15.816,4.79-18.341,13.374a32.63,32.63,0,0,0-.583,16.348c2,9.184,9.479,15.446,18.875,16.3,5.26.477,10.424-.124,15.6-.735,2.066-.243,2.771.482,2.754,2.438-.044,4.754-.02,9.512-.015,14.265,0,1.365-.361,2.46-1.906,2.723-13.982,2.377-27.7,2.562-40.254-5.418a37.049,37.049,0,0,1-16.78-24.188c-2.863-13.081-2.051-25.8,5.258-37.4,8.291-13.165,20.724-18.041,35.854-17.032,4.971.332,9.852,1.155,14.3,3.494,8.082,4.25,10.36,6.908,14.734,16.764,3.176-9.841,8.867-17.132,18.918-19.721,9.638-2.483,18.682-1.422,25.75,6.633a3.48,3.48,0,0,0,.557-2.725c.025-7.513-.1-15.029.073-22.539.066-2.84-.747-3.783-3.685-3.757-15.31.134-30.622.062-45.937.062H441.421c-3.892,0-3.9.01-3.9,3.968q0,67.336,0,134.673c0,4.452-.029,4.172-4.37,4.52-11.536.923-22.276-1.358-32.909-5.991-13.236-5.768-26.876-10.624-40.412-15.683-2.814-1.051-3.763-2.513-3.621-5.447.239-4.934.158-9.89.025-14.832a5.146,5.146,0,0,1,2.591-4.925,271.342,271.342,0,0,1,29.466-17.381c.9-.45,1.986-.671,2.744-1.866-6.651-2.529-13.206-5.023-19.764-7.513-5.6-2.126-11.178-4.312-16.819-6.324-2-.715-2.841-1.775-2.8-3.948q.181-8.557,0-17.117a5.2,5.2,0,0,1,2.506-4.714c17.6-12.9,37.042-22.044,57.8-28.533,2.807-.878,4.493-5.521,2.916-8.062a1.657,1.657,0,0,0-1.426-.777c-.665-.043-1.332-.047-2-.047-28.722,0-57.444.036-86.165-.06-2.9-.01-3.717.857-3.712,3.727q.124,61.486.054,122.973c0,4.646-.006,4.646-4.735,4.649H304.335c-5.161,0-5.164,0-5.164-5.037q0-60.061-.013-120.12c0-6.968.9-6.093-5.994-6.123-9.6-.042-19.211-.016-28.817-.009-3.778,0-3.8.016-3.8,3.815q-.007,61.059,0,122.118c0,.95-.04,1.9-.01,2.853.059,1.812-.788,2.532-2.6,2.514q-8.558-.084-17.119,0c-1.906.022-2.87-.63-2.724-2.637.069-.946,0-1.9,0-2.852V177.068a39.293,39.293,0,0,0-1.427-10.989,9.2,9.2,0,0,0-8.094-7.022c-7.191-1.052-14.43-.367-21.645-.5-7.377-.13-7.379-.029-7.379,7.309v119.55c0,4.395-.009,4.4-4.386,4.4-5.135,0-10.271-.032-15.407.016a6.621,6.621,0,0,1-4.216-1.4q-33.657-25.016-67.368-49.964a5.29,5.29,0,0,1-2.419-4.779c.1-5.9.064-11.794.016-17.689a5.008,5.008,0,0,1,1.828-4.228c14.674-12.579,30.572-23.216,48.4-30.846a134.761,134.761,0,0,1,18.268-6.457c2.266-.6,3.083-1.76,2.961-4.042a74.477,74.477,0,0,1,0-8.556c.167-2.671-.922-3.394-3.484-3.387-25.2.074-50.407.044-75.61.044a28.288,28.288,0,0,0-2.851.013c-2.445.251-3.426-.7-3.328-3.237.162-4.179.161-8.371,0-12.55-.1-2.549.92-3.5,3.341-3.232a2.6,2.6,0,0,0,.285,0q64.2-.006,128.391-.045C230.143,139.465,235.369,141.222,239.507,146.6Zm-62.32,82.616q0-15.531-.007-31.061c-.005-3.064-.148-3.161-3.054-2.044a172.853,172.853,0,0,0-46.477,27.315c-1.58,1.274-1.219,1.856.157,2.909q23.285,17.86,46.519,35.789c.691.529,1.377,1.719,2.379,1.106.872-.534.469-1.751.471-2.667q.031-15.673.012-31.346Zm237.957-23.279c0-5.413-.022-10.825.012-16.238.01-1.751-.3-2.75-2.443-2.025a158.913,158.913,0,0,0-37.477,18.374c-1.751,1.17-1.54,1.814.314,2.55q18.662,7.413,37.279,14.927c1.855.75,2.355.209,2.336-1.635-.057-5.317-.021-10.636-.021-15.952Zm-36.527,59.474c.361.388.46.582.613.646,11.241,4.663,22.5,9.291,33.721,13.99,2.106.881,2.208-.223,2.2-1.8q-.03-12.553-.009-25.107c0-7.051-.046-7.155-6.443-4.3a177.137,177.137,0,0,0-30.087,16.572Z" transform="translate(-91.946 -83.83)" fill="none" fill-rule="evenodd"/>
        <path id="Path_18-2" data-name="Path 18" d="M118.066,294.125a13.845,13.845,0,1,1-13.841,13.918C104.329,300.041,110.223,294.115,118.066,294.125Z" transform="translate(-93.628 -112.633)" fill="none" fill-rule="evenodd"/>
      </g>
    </g>
    <path id="Path_19-2" data-name="Path 19" d="M411.123,175.666" transform="translate(-429.946 -2672.166)" fill="#fe0a52" stroke="#000" stroke-miterlimit="10" stroke-width="1"/>
    <rect id="Rectangle_9" data-name="Rectangle 9" width="304" height="316" transform="translate(-291 -2654)" fill="#ff284f"/>
    <g id="Group_29" data-name="Group 29" transform="translate(6584.061 -2718.326)">
      <g id="lightbulb" transform="translate(-6815.061 111.326)">
        <g id="Group_2" data-name="Group 2">
          <g id="Group_1" data-name="Group 1">
            <path id="Path_1" data-name="Path 1" d="M162.25,93.2a57.007,57.007,0,0,0-37.674,99.714c9.009,9.009,8.19,28.256,7.985,28.461a3.391,3.391,0,0,0,1.024,2.662,3.778,3.778,0,0,0,2.457,1.024h52.212a3.391,3.391,0,0,0,2.457-1.024,3.893,3.893,0,0,0,1.024-2.662c0-.2-1.024-19.451,7.985-28.461l.614-.614A56.835,56.835,0,0,0,162.25,93.2Zm32.76,94.391c-.2.2-.614.614-.614.819-7.985,8.6-9.419,22.727-9.623,29.484h-45.25c-.2-6.757-1.638-21.5-10.238-30.3a49.858,49.858,0,1,1,65.726,0Z" transform="translate(-69.823 -45.493)" fill="#fff" stroke="#fff" stroke-width="2"/>
            <path id="Path_2" data-name="Path 2" d="M212.81,121.6a3.481,3.481,0,1,0,0,6.962,37.268,37.268,0,0,1,37.265,37.261,3.481,3.481,0,1,0,6.962,0A44.042,44.042,0,0,0,212.81,121.6Z" transform="translate(-120.587 -59.355)" fill="#fff" stroke="#fff" stroke-width="2"/>
            <path id="Path_3" data-name="Path 3" d="M208.984,358.4H163.529a8.6,8.6,0,0,0,0,17.2h45.25c4.914-.2,8.8-3.89,8.8-8.6a8.652,8.652,0,0,0-8.6-8.6Zm0,10.033H163.529a1.615,1.615,0,0,1-1.638-1.638,1.507,1.507,0,0,1,1.638-1.638h45.25a1.615,1.615,0,0,1,1.638,1.638,1.46,1.46,0,0,1-1.433,1.638Z" transform="translate(-94.034 -174.942)" fill="#fff" stroke="#fff" stroke-width="2"/>
            <path id="Path_4" data-name="Path 4" d="M208.67,398.8H176.729a8.6,8.6,0,0,0,0,17.2H208.67a8.652,8.652,0,0,0,8.6-8.6,8.521,8.521,0,0,0-8.6-8.6Zm0,10.033H176.729a1.615,1.615,0,0,1-1.638-1.638,1.507,1.507,0,0,1,1.638-1.638H208.67a1.638,1.638,0,1,1,0,3.276Z" transform="translate(-100.477 -194.662)" fill="#fff" stroke="#fff" stroke-width="2"/>
            <path id="Path_5" data-name="Path 5" d="M212.81,30.713a3.451,3.451,0,0,0,3.481-3.481V3.481a3.481,3.481,0,0,0-6.962,0V27.232a3.588,3.588,0,0,0,3.481,3.481Z" transform="translate(-120.587)" fill="#fff" stroke="#fff" stroke-width="2"/>
            <path id="Path_6" data-name="Path 6" d="M311.661,33.772a3.3,3.3,0,0,0-4.709.819l-13.1,19.656a3.373,3.373,0,0,0,.819,4.914,3.235,3.235,0,0,0,4.71-1.024l13.1-19.656a3.174,3.174,0,0,0-.82-4.709Z" transform="translate(-161.494 -16.163)" fill="#fff" stroke="#fff" stroke-width="2"/>
            <path id="Path_7" data-name="Path 7" d="M119.363,57.881a3.3,3.3,0,0,0,1.843-.614,3.587,3.587,0,0,0,1.024-4.914L109.535,32.492a3.549,3.549,0,0,0-5.938,3.89l12.7,19.861a3.4,3.4,0,0,0,3.071,1.638Z" transform="translate(-68.705 -15.088)" fill="#fff" stroke="#fff" stroke-width="2"/>
            <path id="Path_8" data-name="Path 8" d="M61.848,114.917l-20.68-11.261a3.605,3.605,0,0,0-4.709,1.433,3.269,3.269,0,0,0,1.433,4.709l20.68,11.261a4.819,4.819,0,0,0,1.638.409,3.378,3.378,0,0,0,3.071-1.843,3.6,3.6,0,0,0-1.433-4.708Z" transform="translate(-35.966 -50.42)" fill="#fff" stroke="#fff" stroke-width="2"/>
            <path id="Path_9" data-name="Path 9" d="M369.612,105.089a3.605,3.605,0,0,0-4.71-1.433l-20.885,11.261a3.6,3.6,0,0,0-1.433,4.709,3.378,3.378,0,0,0,3.071,1.843,3.857,3.857,0,0,0,1.638-.409l20.886-11.26a3.605,3.605,0,0,0,1.433-4.711Z" transform="translate(-185.456 -50.42)" fill="#fff" stroke="#fff" stroke-width="2"/>
          </g>
        </g>
      </g>
    </g>
  </g>
</svg>
